<?xml version="1.0" encoding="UTF-8"?>
<svg width="200" height="200" viewBox="0 0 200 200" xmlns="http://www.w3.org/2000/svg">
  <defs>
    <linearGradient id="grad1" x1="0%" y1="0%" x2="100%" y2="100%">
      <stop offset="0%" style="stop-color:#6366F1;stop-opacity:1" />
      <stop offset="100%" style="stop-color:#06B6D4;stop-opacity:1" />
    </linearGradient>
  </defs>
  
  <!-- Background circle -->
  <circle cx="100" cy="100" r="90" fill="url(#grad1)" />
  
  <!-- Book icon -->
  <rect x="60" y="70" width="80" height="60" rx="4" fill="white" opacity="0.9"/>
  <rect x="65" y="75" width="70" height="50" rx="2" fill="none" stroke="#6366F1" stroke-width="2"/>
  
  <!-- Pages -->
  <line x1="75" y1="85" x2="125" y2="85" stroke="#6366F1" stroke-width="1.5"/>
  <line x1="75" y1="95" x2="115" y2="95" stroke="#6366F1" stroke-width="1.5"/>
  <line x1="75" y1="105" x2="120" y2="105" stroke="#6366F1" stroke-width="1.5"/>
  <line x1="75" y1="115" x2="110" y2="115" stroke="#6366F1" stroke-width="1.5"/>
  
  <!-- Bookmark -->
  <rect x="115" y="65" width="8" height="20" fill="#06B6D4"/>
  <polygon points="115,85 119,80 123,85" fill="#06B6D4"/>
  
  <!-- Brain/knowledge symbol -->
  <circle cx="140" cy="60" r="15" fill="white" opacity="0.9"/>
  <path d="M130 60 Q135 50 140 60 Q145 50 150 60 Q145 70 140 60 Q135 70 130 60" fill="#6366F1"/>
</svg> 